<svg width="15" height="15" fill="none" xmlns="http://www.w3.org/2000/svg"><g clip-path="url(#a)" fill="#999"><path d="M13.1688 1.7922H1.8343C.8225 1.7922 0 2.6147 0 3.6265v7.7467c0 1.0118.8225 1.8343 1.8343 1.8343h11.3314c1.0118 0 1.8343-.8225 1.8343-1.8343V3.6296c.0031-1.0118-.8194-1.8374-1.8312-1.8374Zm.9963 9.581c0 .5494-.4469.9963-.9963.9963H1.8343c-.5494 0-.9963-.4469-.9963-.9963V3.6296c0-.5493.447-.9963.9963-.9963h11.3314c.5494 0 .9963.447.9963.9963v7.7436h.0031Z"/><path d="m9.46 7.4037 3.6686-3.2899a.421.421 0 0 0 .031-.5928.421.421 0 0 0-.5928-.031l-5.059 4.5406-.9869-.8814c-.0031-.0031-.0062-.0062-.0062-.0093a.6194.6194 0 0 0-.0683-.059L2.4303 3.487a.4184.4184 0 0 0-.5928.0341.4185.4185 0 0 0 .0341.5928l3.712 3.3178-3.6965 3.4606a.4207.4207 0 0 0-.0186.5928c.0838.0869.1955.1335.3073.1335a.42.42 0 0 0 .2855-.1118l3.7523-3.5102 1.018.9094a.4187.4187 0 0 0 .2794.1055.4163.4163 0 0 0 .2793-.1086l1.046-.9373 3.7305 3.5444a.4169.4169 0 0 0 .2887.1148.4185.4185 0 0 0 .3041-.1304c.1583-.1676.1521-.4345-.0155-.5928l-3.684-3.4978Z"/></g><defs><clipPath id="a"><path fill="#fff" d="M0 0h15v15H0z"/></clipPath></defs></svg>
