<svg xmlns="http://www.w3.org/2000/svg" width="30" height="30" fill="none"><path fill="#4985FF" d="M11.8364 21.0235a.4936.4936 0 0 1-.3206-.1183l-3.205-2.729a.4952.4952 0 0 1 0-.7542l3.205-2.729a.4952.4952 0 1 1 .6421.7539l-2.762 2.3521 2.762 2.352a.4953.4953 0 0 1-.3215.8725ZM18.1635 21.0235a.4934.4934 0 0 1-.3773-.1744.4952.4952 0 0 1 .0559-.6981l2.7619-2.352-2.7619-2.3521a.4951.4951 0 1 1 .642-.7539l3.205 2.729a.4953.4953 0 0 1 0 .7542l-3.205 2.729a.4934.4934 0 0 1-.3206.1183ZM13.8652 23.0706a.4955.4955 0 0 1-.4853-.5976l1.9974-9.4836a.4954.4954 0 0 1 .9693.2043l-1.9974 9.4836a.4955.4955 0 0 1-.484.3933Z"/><path fill="#4985FF" d="M26.6745 28.2374H3.3255C1.4919 28.2374 0 26.7457 0 24.9119V5.0945C0 3.261 1.492 1.769 3.3255 1.769h23.349C28.5081 1.769 30 3.261 30 5.0945V24.912c0 1.8338-1.4919 3.3255-3.3255 3.3255ZM3.3255 2.7596c-1.2874 0-2.335 1.0475-2.335 2.335v19.8173c0 1.2874 1.0476 2.3349 2.335 2.3349h23.349c1.2874 0 2.3349-1.0475 2.3349-2.3349V5.0945c0-1.2874-1.0475-2.3349-2.3349-2.3349H3.3255Z"/><path fill="#4985FF" d="M29.5047 9.6996H.4953a.4954.4954 0 0 1 0-.9906h29.0094a.4954.4954 0 0 1 0 .9906ZM8.462 7.3296c-.864 0-1.5675-.7034-1.5675-1.5674 0-.8643.7034-1.5674 1.5674-1.5674.8643 0 1.5674.7031 1.5674 1.5674 0 .864-.7031 1.5674-1.5674 1.5674Zm0-2.1442a.5776.5776 0 0 0-.5769.5768c0 .3181.259.5768.5768.5768a.5774.5774 0 0 0 .5768-.5768.5774.5774 0 0 0-.5768-.5768ZM3.6475 7.3144c-.8643 0-1.5674-.703-1.5674-1.5673s.7031-1.5674 1.5674-1.5674c.8642 0 1.5673.7031 1.5673 1.5674 0 .8642-.703 1.5674-1.5673 1.5674Zm0-2.1441a.5778.5778 0 0 0-.5769.5768c0 .318.259.5768.5769.5768a.5774.5774 0 0 0 .5768-.5768.5776.5776 0 0 0-.5768-.5768ZM13.278 7.3445c-.8639 0-1.5671-.7032-1.5671-1.5674 0-.864.7032-1.5671 1.5671-1.5671.8643 0 1.5674.703 1.5674 1.567 0 .8643-.7031 1.5675-1.5674 1.5675Zm0-2.1443a.5773.5773 0 0 0-.5765.5769c0 .318.2587.5768.5765.5768a.5774.5774 0 0 0 .5769-.5768.5774.5774 0 0 0-.5769-.5769Z"/></svg>